<?xml version="1.0" encoding="iso-8859-1"?>
<!-- Generator: Adobe Illustrator 21.0.2, SVG Export Plug-In . SVG Version: 6.00 Build 0)  -->
<svg version="1.1" id="Layer_1" xmlns="http://www.w3.org/2000/svg" xmlns:xlink="http://www.w3.org/1999/xlink" x="0px" y="0px"
	 viewBox="0 0 48 48" style="enable-background:new 0 0 48 48;" xml:space="preserve">
<g id="surface1_106_">
	<path style="fill:#FFD54F;" d="M44,24c0-10.998-9.002-20-20-20v20l13.668,14.557C41.556,34.998,44,29.777,44,24z"/>
	<path style="fill:#FFAB00;" d="M24,24H4c0,5.221,2.109,10.113,5.443,13.668C13.11,41.556,18.332,44,24,44
		c5.221,0,10-2.109,13.668-5.443L24,24z"/>
	<path style="fill:#FF3D00;" d="M4,24C4,13.002,13.002,4,24,4v20H4z M34,4l-8,18l18-8C42.22,9.334,38.223,5.78,34,4z"/>
</g>
</svg>
