<?xml version="1.0" encoding="utf-8"?>
<!-- Generator: Adobe Illustrator 21.0.2, SVG Export Plug-In . SVG Version: 6.00 Build 0)  -->
<svg xmlns="http://www.w3.org/2000/svg" xmlns:xlink="http://www.w3.org/1999/xlink" version="1.1" id="Layer_1" x="0px" y="0px" viewBox="0 0 48 48" style="enable-background:new 0 0 48 48;" xml:space="preserve">
<g id="surface1">
	<path style="fill:#C5CAE9;" d="M26,41l-2,5l-2-5V14h4V41z"/>
	<path style="fill:#FF5722;" d="M32,10c0,4.4-3.6,8-8,8s-8-3.6-8-8s3.6-8,8-8S32,5.6,32,10z"/>
	<path style="fill:#FFAB91;" d="M19,11c-0.6,0-1-0.4-1-1c0-3.3,2.7-6,6-6c0.6,0,1,0.4,1,1s-0.4,1-1,1c-2.2,0-4,1.8-4,4   C20,10.6,19.6,11,19,11z"/>
</g>
</svg>
