<?xml version="1.0" encoding="iso-8859-1"?>
<!-- Generator: Adobe Illustrator 19.1.1, SVG Export Plug-In . SVG Version: 6.00 Build 0)  -->
<svg version="1.1"  xmlns="http://www.w3.org/2000/svg" xmlns:xlink="http://www.w3.org/1999/xlink" x="0px" y="0px"
	 viewBox="0 0 48 48" style="enable-background:new 0 0 48 48;" xml:space="preserve">
<path style="fill:#FFAB00;" d="M20,28v-5c0-2.206,1.794-4,4-4c2.206,0,4,1.794,4,4v5h5v-5c0-4.95-4.05-9-9-9s-9,4.05-9,9v5H20z"/>
<path style="fill:#01579B;" d="M35,45H13c-1.1,0-2-0.9-2-2V29c0-1.1,0.9-2,2-2h22c1.1,0,2,0.9,2,2v14C37,44.1,36.1,45,35,45z"/>
<g>
	<g>
		<path style="fill:#FFFFFF;" d="M24,33c-1.105,0-2,0.895-2,2c0,0.738,0.405,1.376,1,1.723V39c0,0.55,0.45,1,1,1s1-0.45,1-1v-2.277
			c0.595-0.346,1-0.984,1-1.723C26,33.895,25.105,33,24,33z"/>
	</g>
</g>
<g>
	<path style="fill:#FFAB40;" d="M24,3c-1.103,0-2,0.897-2,2v4c0,1.103,0.897,2,2,2c1.103,0,2-0.897,2-2V5C26,3.897,25.103,3,24,3z"
		/>
	<path style="fill:#FFAB40;" d="M13.413,8.585C13.036,8.208,12.534,8,11.999,8c-0.535,0-1.037,0.208-1.414,0.585S10,9.464,10,9.999
		s0.208,1.037,0.585,1.414l3.002,3.002C13.964,14.792,14.466,15,15.001,15c0.535,0,1.037-0.208,1.414-0.585
		C16.792,14.038,17,13.536,17,13.001c0-0.535-0.208-1.037-0.585-1.414L13.413,8.585z"/>
	<path style="fill:#FFAB40;" d="M38,9.999c0-0.535-0.208-1.037-0.585-1.414C37.039,8.208,36.536,8,36.001,8
		c-0.535,0-1.037,0.208-1.414,0.585l-3.002,3.002C31.208,11.964,31,12.466,31,13.001c0,0.535,0.208,1.037,0.585,1.414
		C31.962,14.792,32.464,15,32.999,15c0.535,0,1.037-0.208,1.414-0.585l3.002-3.002C37.792,11.036,38,10.534,38,9.999z"/>
	<path style="fill:#FFAB40;" d="M10,20H6c-1.103,0-2,0.897-2,2c0,1.103,0.897,2,2,2h4c1.103,0,2-0.897,2-2
		C12,20.897,11.103,20,10,20z"/>
	<path style="fill:#FFAB40;" d="M42,20h-4c-1.103,0-2,0.897-2,2s0.897,2,2,2h4c1.103,0,2-0.897,2-2S43.103,20,42,20z"/>
</g>
</svg>
